HIERARCHY
ROOT hip
{
	OFFSET 0.000000 0.000000 0.000000
	CHANNELS 6 Xposition Yposition Zposition Xrotation Zrotation Yrotation 
	JOINT abdomen
	{
		OFFSET 0.000000 3.422050 0.000000
		CHANNELS 3 Xrotation Zrotation Yrotation 
		JOINT chest
		{
			OFFSET 0.000000 8.486693 -0.684411
			CHANNELS 3 Xrotation Zrotation Yrotation 
			JOINT neck
			{
				OFFSET 0.000000 10.266162 -0.273764
				CHANNELS 3 Xrotation Zrotation Yrotation 
				JOINT head
				{
					OFFSET 0.000000 3.148285 0.000000
					CHANNELS 3 Xrotation Zrotation Yrotation 
					End Site
					{
						OFFSET 0.000000 3.148289 0.000000
					}
				}
			}
			JOINT lCollar
			{
				OFFSET 3.422053 6.707223 -0.821293
				CHANNELS 3 Yrotation Zrotation Xrotation 
				JOINT lShldr
				{
					OFFSET 3.285171 0.000000 0.000000
					CHANNELS 3 Zrotation Yrotation Xrotation 
					JOINT lForeArm
					{
						OFFSET 10.129278 0.000000 0.000000
						CHANNELS 3 Yrotation Zrotation Xrotation 
						JOINT lHand
						{
							OFFSET 8.486692 0.000000 0.000000
							CHANNELS 3 Zrotation Yrotation Xrotation 
							End Site
							{
								OFFSET 4.106464 0.000000 0.000000
							}
						}
					}
				}
			}
			JOINT rCollar
			{
				OFFSET -3.558935 6.707223 -0.821293
				CHANNELS 3 Yrotation Zrotation Xrotation 
				JOINT rShldr
				{
					OFFSET -3.148289 0.000000 0.000000
					CHANNELS 3 Zrotation Yrotation Xrotation 
					JOINT rForeArm
					{
						OFFSET -10.266159 0.000000 0.000000
						CHANNELS 3 Yrotation Zrotation Xrotation 
						JOINT rHand
						{
							OFFSET -8.349810 0.000000 0.000000
							CHANNELS 3 Zrotation Yrotation Xrotation 
							End Site
							{
								OFFSET -4.106464 0.000000 0.000000
							}
						}
					}
				}
			}
		}
	}
	JOINT lThigh
	{
		OFFSET 5.338403 -1.642589 1.368821
		CHANNELS 3 Xrotation Zrotation Yrotation 
		JOINT lShin
		{
			OFFSET -2.053232 -20.121670 0.000000
			CHANNELS 3 Xrotation Zrotation Yrotation 
			JOINT lFoot
			{
				OFFSET 0.000000 -19.300380 -1.231939
				CHANNELS 3 Xrotation Yrotation Zrotation 
				End Site
				{
					OFFSET 0.000000 -2.463878 4.653993
				}
			}
		}
	}
	JOINT rThigh
	{
		OFFSET -5.338403 -1.642589 1.368821
		CHANNELS 3 Xrotation Zrotation Yrotation 
		JOINT rShin
		{
			OFFSET 2.053232 -20.121670 0.000000
			CHANNELS 3 Xrotation Zrotation Yrotation 
			JOINT rFoot
			{
				OFFSET 0.000000 -19.300380 -1.231939
				CHANNELS 3 Xrotation Yrotation Zrotation 
				End Site
				{
					OFFSET 0.000000 -2.463878 4.653993
				}
			}
		}
	}
}
MOTION
Frames: 11
Frame Time: 0.033264
0.000000 43.528500 0.000000 0.000000 0.000000 0.000000 0.000000 0.000000 0.000000 0.000000 0.000000 0.000000 0.000000 0.000000 0.000000 0.000000 0.000000 0.000000 0.000000 0.000000 0.000000 0.000000 0.000000 0.000000 0.000000 0.000000 0.000000 0.000000 0.000000 0.000000 0.000000 0.000000 0.000000 0.000000 0.000000 0.000000 0.000000 0.000000 0.000000 0.000000 0.000000 0.000000 0.000000 0.000000 0.000000 0.000000 0.000000 0.000000 0.000000 0.000000 0.000000 0.000000 0.000000 0.000000 0.000000 0.000000 0.000000 0.000000 0.000000 0.000000 
-24.002867 37.998627 3.997991 -11.026763 3.435710 100.015518 0.565706 1.688549 1.951305 20.299023 6.383320 -14.469059 10.302009 -0.052836 8.167669 1.143709 6.508213 40.998295 10.154250 9.591097 10.326633 25.628046 -24.531502 -16.136702 -55.799213 11.806638 8.867176 -6.084747 -47.838631 -57.178787 38.658581 -30.266146 37.489418 56.635647 69.163826 36.774113 90.522469 -53.823666 49.546555 -43.658287 18.879124 1.808124 -85.186333 -33.216602 4.557727 82.512459 -29.690823 -2.063594 3.670639 6.785964 -7.103996 -65.697113 -10.648751 -12.411191 73.105850 -2.631386 9.219176 3.058047 -9.949819 -21.147070 
-24.002867 37.998627 3.997991 -11.026763 3.435710 100.015518 0.565706 1.688549 1.951305 20.299023 6.383320 -14.469059 10.302009 -0.052836 8.167669 1.158365 6.500457 41.098373 10.154250 9.591097 10.326633 25.628048 -24.531504 -16.136702 -55.799213 11.806638 8.867176 -6.084747 -47.838631 -57.178787 38.658585 -30.266146 37.489418 57.023952 68.829262 36.699409 89.261154 -52.926590 48.340031 -43.658287 18.879124 1.808124 -85.186333 -33.216602 4.557727 82.512459 -29.690823 -2.063594 3.670639 6.785964 -7.103996 -65.697113 -10.648751 -12.411191 73.105850 -2.631387 9.219177 3.058047 -9.949819 -21.147070 
-24.002867 37.998627 3.997991 -11.026763 3.435710 100.015518 0.565706 1.688549 1.951305 20.299025 6.383321 -14.469059 10.302009 -0.052836 8.167669 1.173009 6.492677 41.198460 10.154250 9.591097 10.326633 25.628048 -24.531504 -16.136703 -55.799213 11.806638 8.867176 -6.084747 -47.838631 -57.178787 38.658581 -30.266146 37.489418 57.408104 68.494514 36.619549 88.052116 -52.010853 47.186287 -43.658287 18.879124 1.808124 -85.186340 -33.216602 4.557728 82.512459 -29.690823 -2.063594 3.670639 6.785964 -7.103996 -65.697113 -10.648752 -12.411192 73.105850 -2.631386 9.219176 3.058047 -9.949819 -21.147070 
-24.002867 37.998627 3.997991 -11.026763 3.435710 100.015533 0.565706 1.688549 1.951305 20.299023 6.383320 -14.469059 10.302009 -0.052836 8.167669 1.187639 6.484871 41.298534 10.154250 9.591097 10.326633 25.628048 -24.531504 -16.136702 -55.799213 11.806638 8.867176 -6.084748 -47.838634 -57.178795 38.658585 -30.266150 37.489418 57.788273 68.159592 36.534702 86.893059 -51.077587 46.083023 -43.658287 18.879124 1.808124 -85.186333 -33.216606 4.557727 82.512459 -29.690823 -2.063595 3.670639 6.785964 -7.103996 -65.697113 -10.648751 -12.411191 73.105850 -2.631387 9.219177 3.058047 -9.949820 -21.147070 
-24.002867 37.998627 3.997991 -11.026764 3.435709 100.015518 0.565706 1.688549 1.951305 20.299023 6.383320 -14.469059 10.302010 -0.052836 8.167669 1.202256 6.477040 41.398621 10.154251 9.591098 10.326634 25.628046 -24.531502 -16.136702 -55.799217 11.806639 8.867176 -6.084747 -47.838631 -57.178787 38.658585 -30.266153 37.489418 58.164696 67.824585 36.445114 85.781624 -50.127827 45.027889 -43.658287 18.879124 1.808124 -85.186333 -33.216602 4.557725 82.512459 -29.690823 -2.063594 3.670639 6.785964 -7.103996 -65.697113 -10.648751 -12.411191 73.105850 -2.631386 9.219177 3.058047 -9.949820 -21.147072 
-24.002867 37.998627 3.997991 -11.026764 3.435709 100.015518 0.565706 1.688549 1.951305 20.299025 6.383321 -14.469059 10.302009 -0.052836 8.167669 1.216859 6.469182 41.498703 10.154251 9.591098 10.326634 25.628050 -24.531504 -16.136703 -55.799221 11.806638 8.867176 -6.084747 -47.838638 -57.178791 38.658585 -30.266150 37.489418 58.537502 67.489441 36.350945 84.715584 -49.162598 44.018669 -43.658291 18.879124 1.808123 -85.186333 -33.216602 4.557725 82.512466 -29.690823 -2.063596 3.670639 6.785964 -7.103996 -65.697121 -10.648752 -12.411191 73.105858 -2.631387 9.219177 3.058047 -9.949819 -21.147074 
-24.002867 37.998627 3.997991 -11.026762 3.435709 100.015511 0.565706 1.688549 1.951305 20.299023 6.383320 -14.469059 10.302009 -0.052836 8.167669 1.231448 6.461299 41.598778 10.154251 9.591097 10.326632 25.628044 -24.531500 -16.136702 -55.799213 11.806637 8.867175 -6.084745 -47.838627 -57.178783 38.658577 -30.266144 37.489414 58.906864 67.154243 36.252365 83.692719 -48.182865 43.053146 -43.658283 18.879124 1.808123 -85.186333 -33.216599 4.557727 82.512451 -29.690819 -2.063591 3.670638 6.785964 -7.103995 -65.697105 -10.648751 -12.411192 73.105850 -2.631387 9.219176 3.058047 -9.949819 -21.147068 
-24.002867 37.998627 3.997991 -11.026763 3.435710 100.015526 0.565706 1.688548 1.951305 20.299023 6.383320 -14.469059 10.302009 -0.052836 8.167668 1.246025 6.453391 41.698860 10.154250 9.591096 10.326632 25.628046 -24.531502 -16.136702 -55.799213 11.806638 8.867175 -6.084745 -47.838631 -57.178787 38.658577 -30.266140 37.489410 59.273003 66.819054 36.149593 82.710983 -47.189568 42.129265 -43.658283 18.879124 1.808123 -85.186317 -33.216599 4.557724 82.512459 -29.690823 -2.063596 3.670638 6.785964 -7.103995 -65.697113 -10.648751 -12.411190 73.105850 -2.631386 9.219176 3.058047 -9.949819 -21.147070 
-24.002867 37.998627 3.997991 -11.026763 3.435710 100.015518 0.565706 1.688548 1.951305 20.299021 6.383320 -14.469059 10.302008 -0.052836 8.167668 1.260587 6.445457 41.798946 10.154250 9.591096 10.326632 25.628044 -24.531500 -16.136700 -55.799213 11.806638 8.867176 -6.084747 -47.838631 -57.178787 38.658577 -30.266144 37.489414 59.635975 66.483826 36.042728 81.768265 -46.183582 41.244953 -43.658283 18.879124 1.808123 -85.186333 -33.216599 4.557728 82.512459 -29.690823 -2.063594 3.670638 6.785964 -7.103995 -65.697113 -10.648751 -12.411190 73.105850 -2.631386 9.219176 3.058047 -9.949818 -21.147070 
-24.002867 37.998627 3.997991 -11.026763 3.435710 100.015518 0.565706 1.688549 1.951305 20.299023 6.383320 -14.469059 10.302009 -0.052836 8.167669 1.275136 6.437497 41.899029 10.154250 9.591097 10.326632 25.628046 -24.531502 -16.136702 -55.799213 11.806638 8.867176 -6.084747 -47.838631 -57.178787 38.658581 -30.266146 37.489418 59.995937 66.148605 35.931927 80.862656 -45.165760 40.398293 -43.658283 18.879124 1.808123 -85.186333 -33.216602 4.557727 82.512459 -29.690823 -2.063595 3.670638 6.785964 -7.103995 -65.697113 -10.648751 -12.411191 73.105850 -2.631387 9.219176 3.058047 -9.949818 -21.147066 
